<mxfile host="app.diagrams.net" modified="2022-03-07T05:31:55.138Z" agent="5.0 (Windows NT 10.0; Win64; x64) AppleWebKit/537.36 (KHTML, like Gecko) Chrome/99.0.4844.51 Safari/537.36" etag="yUwygxBf7_7HcUAR_jZ6" version="16.6.6" type="github">
  <diagram name="Page-1" id="74b105a0-9070-1c63-61bc-23e55f88626e">
    <mxGraphModel dx="868" dy="1721" grid="1" gridSize="10" guides="1" tooltips="1" connect="1" arrows="1" fold="1" page="1" pageScale="1.5" pageWidth="1169" pageHeight="826" background="none" math="0" shadow="0">
      <root>
        <mxCell id="0" style=";html=1;" />
        <mxCell id="1" style=";html=1;" parent="0" />
        <mxCell id="10b056a9c633e61c-18" style="edgeStyle=orthogonalEdgeStyle;rounded=0;html=1;endArrow=block;endFill=1;jettySize=auto;orthogonalLoop=1;strokeWidth=2;startArrow=none;startFill=0;" parent="1" source="10b056a9c633e61c-1" target="10b056a9c633e61c-2" edge="1">
          <mxGeometry relative="1" as="geometry" />
        </mxCell>
        <mxCell id="10b056a9c633e61c-1" value="Message Translator" style="strokeWidth=2;dashed=0;align=center;fontSize=12;shape=mxgraph.eip.message_translator;fillColor=#c0f5a9;verticalLabelPosition=bottom;verticalAlign=top;" parent="1" vertex="1">
          <mxGeometry x="382" y="590" width="150" height="90" as="geometry" />
        </mxCell>
        <mxCell id="10b056a9c633e61c-19" style="edgeStyle=orthogonalEdgeStyle;rounded=0;html=1;endArrow=block;endFill=1;jettySize=auto;orthogonalLoop=1;strokeWidth=2;startArrow=none;startFill=0;" parent="1" source="10b056a9c633e61c-2" target="10b056a9c633e61c-6" edge="1">
          <mxGeometry relative="1" as="geometry">
            <Array as="points">
              <mxPoint x="852" y="635" />
              <mxPoint x="852" y="440" />
            </Array>
          </mxGeometry>
        </mxCell>
        <mxCell id="10b056a9c633e61c-20" style="edgeStyle=orthogonalEdgeStyle;rounded=0;html=1;endArrow=block;endFill=1;jettySize=auto;orthogonalLoop=1;strokeWidth=2;startArrow=none;startFill=0;" parent="1" source="10b056a9c633e61c-2" target="10b056a9c633e61c-8" edge="1">
          <mxGeometry relative="1" as="geometry" />
        </mxCell>
        <mxCell id="10b056a9c633e61c-21" style="edgeStyle=orthogonalEdgeStyle;rounded=0;html=1;endArrow=block;endFill=1;jettySize=auto;orthogonalLoop=1;strokeWidth=2;startArrow=none;startFill=0;" parent="1" source="10b056a9c633e61c-2" target="10b056a9c633e61c-14" edge="1">
          <mxGeometry relative="1" as="geometry">
            <Array as="points">
              <mxPoint x="852" y="635" />
              <mxPoint x="852" y="885" />
            </Array>
          </mxGeometry>
        </mxCell>
        <mxCell id="10b056a9c633e61c-2" value="Recipient List" style="strokeWidth=2;dashed=0;align=center;fontSize=12;fillColor=#c0f5a9;verticalLabelPosition=bottom;verticalAlign=top;shape=mxgraph.eip.recipient_list;" parent="1" vertex="1">
          <mxGeometry x="632" y="590" width="150" height="90" as="geometry" />
        </mxCell>
        <mxCell id="10b056a9c633e61c-17" style="edgeStyle=orthogonalEdgeStyle;rounded=0;html=1;endArrow=block;endFill=1;jettySize=auto;orthogonalLoop=1;strokeWidth=2;startArrow=none;startFill=0;" parent="1" source="10b056a9c633e61c-4" target="10b056a9c633e61c-1" edge="1">
          <mxGeometry relative="1" as="geometry" />
        </mxCell>
        <mxCell id="10b056a9c633e61c-4" value="Message Endpoint" style="strokeWidth=2;dashed=0;align=center;fontSize=12;shape=rect;verticalLabelPosition=bottom;verticalAlign=top;fillColor=#c0f5a9" parent="1" vertex="1">
          <mxGeometry x="172" y="590" width="150" height="90" as="geometry" />
        </mxCell>
        <mxCell id="10b056a9c633e61c-5" value="" style="strokeWidth=1;dashed=0;align=center;fontSize=8;shape=rect;fillColor=#ffffff;strokeColor=#000000;" parent="10b056a9c633e61c-4" vertex="1">
          <mxGeometry x="85" y="25" width="40" height="40" as="geometry" />
        </mxCell>
        <mxCell id="10b056a9c633e61c-22" style="edgeStyle=orthogonalEdgeStyle;rounded=0;html=1;endArrow=block;endFill=1;jettySize=auto;orthogonalLoop=1;strokeWidth=2;startArrow=none;startFill=0;" parent="1" source="10b056a9c633e61c-6" target="10b056a9c633e61c-10" edge="1">
          <mxGeometry relative="1" as="geometry" />
        </mxCell>
        <mxCell id="10b056a9c633e61c-25" style="edgeStyle=orthogonalEdgeStyle;rounded=0;html=1;endArrow=block;endFill=1;jettySize=auto;orthogonalLoop=1;strokeWidth=2;startArrow=none;startFill=0;" parent="1" source="10b056a9c633e61c-6" target="10b056a9c633e61c-12" edge="1">
          <mxGeometry relative="1" as="geometry" />
        </mxCell>
        <mxCell id="10b056a9c633e61c-28" style="edgeStyle=orthogonalEdgeStyle;rounded=0;html=1;endArrow=block;endFill=1;jettySize=auto;orthogonalLoop=1;strokeWidth=2;startArrow=none;startFill=0;" parent="1" source="10b056a9c633e61c-10" target="10b056a9c633e61c-4" edge="1">
          <mxGeometry relative="1" as="geometry">
            <Array as="points">
              <mxPoint x="1267" y="310" />
              <mxPoint x="247" y="310" />
            </Array>
          </mxGeometry>
        </mxCell>
        <mxCell id="10b056a9c633e61c-6" value="Message Endpoint" style="strokeWidth=2;dashed=0;align=center;fontSize=12;shape=rect;verticalLabelPosition=top;verticalAlign=bottom;fillColor=#c0f5a9;labelPosition=center;" parent="1" vertex="1">
          <mxGeometry x="922" y="370" width="150" height="90" as="geometry" />
        </mxCell>
        <mxCell id="10b056a9c633e61c-7" value="" style="strokeWidth=1;dashed=0;align=center;fontSize=8;shape=rect;fillColor=#ffffff;strokeColor=#000000;" parent="10b056a9c633e61c-6" vertex="1">
          <mxGeometry x="85" y="25" width="40" height="40" as="geometry" />
        </mxCell>
        <mxCell id="10b056a9c633e61c-23" style="edgeStyle=orthogonalEdgeStyle;rounded=0;html=1;endArrow=block;endFill=1;jettySize=auto;orthogonalLoop=1;strokeWidth=2;startArrow=none;startFill=0;" parent="1" source="10b056a9c633e61c-8" target="10b056a9c633e61c-11" edge="1">
          <mxGeometry relative="1" as="geometry" />
        </mxCell>
        <mxCell id="10b056a9c633e61c-8" value="Message Endpoint" style="strokeWidth=2;dashed=0;align=center;fontSize=12;shape=rect;verticalLabelPosition=bottom;verticalAlign=top;fillColor=#c0f5a9" parent="1" vertex="1">
          <mxGeometry x="922" y="670" width="150" height="90" as="geometry" />
        </mxCell>
        <mxCell id="10b056a9c633e61c-9" value="" style="strokeWidth=1;dashed=0;align=center;fontSize=8;shape=rect" parent="10b056a9c633e61c-8" vertex="1">
          <mxGeometry x="85" y="25" width="40" height="40" as="geometry" />
        </mxCell>
        <mxCell id="10b056a9c633e61c-10" value="Message Translator" style="strokeWidth=2;dashed=0;align=center;fontSize=12;shape=mxgraph.eip.message_translator;fillColor=#c0f5a9;verticalLabelPosition=bottom;verticalAlign=top;" parent="1" vertex="1">
          <mxGeometry x="1192" y="370" width="150" height="90" as="geometry" />
        </mxCell>
        <mxCell id="10b056a9c633e61c-11" value="Message Translator" style="strokeWidth=2;dashed=0;align=center;fontSize=12;shape=mxgraph.eip.message_translator;fillColor=#c0f5a9;verticalLabelPosition=bottom;verticalAlign=top;" parent="1" vertex="1">
          <mxGeometry x="1192" y="670" width="150" height="90" as="geometry" />
        </mxCell>
        <mxCell id="10b056a9c633e61c-26" style="edgeStyle=orthogonalEdgeStyle;rounded=0;html=1;endArrow=block;endFill=1;jettySize=auto;orthogonalLoop=1;strokeWidth=2;startArrow=none;startFill=0;" parent="1" source="10b056a9c633e61c-12" target="10b056a9c633e61c-13" edge="1">
          <mxGeometry relative="1" as="geometry" />
        </mxCell>
        <mxCell id="10b056a9c633e61c-12" value="Deqad Letter Channel" style="strokeWidth=1;dashed=0;align=center;html=1;fontSize=8;shape=mxgraph.eip.deadLetterChannel;verticalLabelPosition=bottom;labelBackgroundColor=#ffffff;verticalAlign=top;" parent="1" vertex="1">
          <mxGeometry x="947" y="550" width="100" height="20" as="geometry" />
        </mxCell>
        <mxCell id="10b056a9c633e61c-27" style="edgeStyle=orthogonalEdgeStyle;rounded=0;html=1;endArrow=block;endFill=1;jettySize=auto;orthogonalLoop=1;strokeWidth=2;startArrow=none;startFill=0;" parent="1" source="10b056a9c633e61c-13" target="10b056a9c633e61c-15" edge="1">
          <mxGeometry relative="1" as="geometry" />
        </mxCell>
        <mxCell id="10b056a9c633e61c-13" value="Envelope Wrapper" style="strokeWidth=2;dashed=0;align=center;fontSize=12;fillColor=#c0f5a9;verticalLabelPosition=bottom;verticalAlign=top;shape=mxgraph.eip.envelope_wrapper;" parent="1" vertex="1">
          <mxGeometry x="1192" y="515" width="150" height="90" as="geometry" />
        </mxCell>
        <mxCell id="10b056a9c633e61c-24" style="edgeStyle=orthogonalEdgeStyle;rounded=0;html=1;endArrow=block;endFill=1;jettySize=auto;orthogonalLoop=1;strokeWidth=2;startArrow=none;startFill=0;" parent="1" source="10b056a9c633e61c-14" target="10b056a9c633e61c-16" edge="1">
          <mxGeometry relative="1" as="geometry" />
        </mxCell>
        <mxCell id="10b056a9c633e61c-14" value="" style="strokeWidth=2;dashed=0;align=center;fontSize=12;fillColor=#c0f5a9;verticalLabelPosition=bottom;verticalAlign=top;shape=mxgraph.eip.composed_message_processor;" parent="1" vertex="1">
          <mxGeometry x="922" y="840" width="150" height="90" as="geometry" />
        </mxCell>
        <mxCell id="10b056a9c633e61c-29" style="edgeStyle=orthogonalEdgeStyle;rounded=0;html=1;endArrow=block;endFill=1;jettySize=auto;orthogonalLoop=1;fontSize=12;strokeWidth=2;startArrow=none;startFill=0;" parent="1" source="10b056a9c633e61c-15" target="10b056a9c633e61c-4" edge="1">
          <mxGeometry relative="1" as="geometry">
            <Array as="points">
              <mxPoint x="1507" y="310" />
              <mxPoint x="247" y="310" />
            </Array>
          </mxGeometry>
        </mxCell>
        <mxCell id="10b056a9c633e61c-15" value="Message Store" style="strokeWidth=2;dashed=0;align=center;fontSize=12;verticalLabelPosition=bottom;verticalAlign=top;shape=mxgraph.eip.message_store;fillColor=#c0f5a9" parent="1" vertex="1">
          <mxGeometry x="1432" y="515" width="150" height="90" as="geometry" />
        </mxCell>
        <mxCell id="10b056a9c633e61c-16" value="Message Translator" style="strokeWidth=2;dashed=0;align=center;fontSize=12;shape=mxgraph.eip.message_translator;fillColor=#c0f5a9;verticalLabelPosition=bottom;verticalAlign=top;" parent="1" vertex="1">
          <mxGeometry x="1192" y="840" width="150" height="90" as="geometry" />
        </mxCell>
        <mxCell id="wyKGXiQvHrDw4CaJxizu-11" style="edgeStyle=orthogonalEdgeStyle;rounded=0;orthogonalLoop=1;jettySize=auto;html=1;entryX=0.371;entryY=0.015;entryDx=0;entryDy=0;entryPerimeter=0;" edge="1" parent="1" source="wyKGXiQvHrDw4CaJxizu-1" target="wyKGXiQvHrDw4CaJxizu-2">
          <mxGeometry relative="1" as="geometry" />
        </mxCell>
        <mxCell id="wyKGXiQvHrDw4CaJxizu-1" value="Login" style="html=1;strokeColor=none;fillColor=#0079D6;labelPosition=center;verticalLabelPosition=middle;verticalAlign=top;align=center;fontSize=12;outlineConnect=0;spacingTop=-6;fontColor=#FFFFFF;sketch=0;shape=mxgraph.sitemap.login;" vertex="1" parent="1">
          <mxGeometry x="80" y="-230" width="120" height="70" as="geometry" />
        </mxCell>
        <mxCell id="wyKGXiQvHrDw4CaJxizu-10" style="edgeStyle=orthogonalEdgeStyle;rounded=0;orthogonalLoop=1;jettySize=auto;html=1;" edge="1" parent="1" source="wyKGXiQvHrDw4CaJxizu-2" target="wyKGXiQvHrDw4CaJxizu-3">
          <mxGeometry relative="1" as="geometry" />
        </mxCell>
        <mxCell id="wyKGXiQvHrDw4CaJxizu-2" value="" style="sketch=0;outlineConnect=0;fontColor=#232F3E;gradientColor=none;fillColor=#3F8624;strokeColor=none;dashed=0;verticalLabelPosition=bottom;verticalAlign=top;align=center;html=1;fontSize=12;fontStyle=0;aspect=fixed;pointerEvents=1;shape=mxgraph.aws4.policy;" vertex="1" parent="1">
          <mxGeometry x="120" y="-70" width="78" height="67" as="geometry" />
        </mxCell>
        <mxCell id="wyKGXiQvHrDw4CaJxizu-12" style="edgeStyle=orthogonalEdgeStyle;rounded=0;orthogonalLoop=1;jettySize=auto;html=1;entryX=0;entryY=0.75;entryDx=0;entryDy=0;" edge="1" parent="1" source="wyKGXiQvHrDw4CaJxizu-3" target="wyKGXiQvHrDw4CaJxizu-5">
          <mxGeometry relative="1" as="geometry" />
        </mxCell>
        <mxCell id="wyKGXiQvHrDw4CaJxizu-3" value="" style="sketch=0;pointerEvents=1;shadow=0;dashed=0;html=1;strokeColor=none;fillColor=#505050;labelPosition=center;verticalLabelPosition=bottom;verticalAlign=top;outlineConnect=0;align=center;shape=mxgraph.office.security.policy;" vertex="1" parent="1">
          <mxGeometry x="270" y="-130" width="80" height="60" as="geometry" />
        </mxCell>
        <mxCell id="wyKGXiQvHrDw4CaJxizu-9" value="" style="edgeStyle=orthogonalEdgeStyle;rounded=0;orthogonalLoop=1;jettySize=auto;html=1;entryX=0.613;entryY=-0.033;entryDx=0;entryDy=0;entryPerimeter=0;" edge="1" parent="1" source="wyKGXiQvHrDw4CaJxizu-4" target="wyKGXiQvHrDw4CaJxizu-3">
          <mxGeometry relative="1" as="geometry">
            <mxPoint x="330" y="-195" as="targetPoint" />
          </mxGeometry>
        </mxCell>
        <mxCell id="wyKGXiQvHrDw4CaJxizu-4" value="" style="sketch=0;pointerEvents=1;shadow=0;dashed=0;html=1;strokeColor=none;labelPosition=center;verticalLabelPosition=bottom;verticalAlign=top;align=center;fillColor=#515151;shape=mxgraph.mscae.system_center.admin_console" vertex="1" parent="1">
          <mxGeometry x="420" y="-230" width="100" height="70" as="geometry" />
        </mxCell>
        <mxCell id="wyKGXiQvHrDw4CaJxizu-5" value="" style="aspect=fixed;perimeter=ellipsePerimeter;html=1;align=center;shadow=0;dashed=0;spacingTop=3;image;image=img/lib/active_directory/database_server.svg;" vertex="1" parent="1">
          <mxGeometry x="438" y="-100" width="82" height="100" as="geometry" />
        </mxCell>
      </root>
    </mxGraphModel>
  </diagram>
</mxfile>
